<?xml version="1.0" encoding="utf-8"?>
<!-- Generator: Adobe Illustrator 18.1.0, SVG Export Plug-In . SVG Version: 6.00 Build 0)  -->
<!DOCTYPE svg PUBLIC "-//W3C//DTD SVG 1.1//EN" "http://www.w3.org/Graphics/SVG/1.1/DTD/svg11.dtd">
<svg version="1.1" id="Layer_1" xmlns="http://www.w3.org/2000/svg" xmlns:xlink="http://www.w3.org/1999/xlink" x="0px" y="0px"
	 viewBox="0 0 500 500" enable-background="new 0 0 500 500" xml:space="preserve">
<path fill="#FFFFFF" d="M499.2,408.9L432.7,32.8c-2.4-13.7-11.9-25.1-25-30c-4.5-1.7-9.1-2.5-13.7-2.5c-8.9,0-17.7,3-24.8,8.8
	L15.3,296.7c-9,7.4-14.4,18.3-14.5,30c-0.2,11.7,4.9,22.8,13.7,30.4l155,132.9c7.2,6.2,16.3,9.5,25.6,9.5c2.2,0,4.3-0.2,6.5-0.5
	l265.4-44.3c10.4-1.7,19.6-7.5,25.6-16.1C498.6,429.9,501,419.2,499.2,408.9z M393.9,39.7L437,283L340.6,93.7l-3.8-7.5L393.9,39.7z
	 M102.2,380.5l251.8,53l-159,26.5l-155-132.9l265.5-215.7l154.9,304.3L40.1,327.2L102.2,380.5z"/>
</svg>
