<?xml version="1.0" encoding="utf-8"?>
<!-- Generator: Adobe Illustrator 16.0.0, SVG Export Plug-In . SVG Version: 6.00 Build 0)  -->
<!DOCTYPE svg PUBLIC "-//W3C//DTD SVG 1.1//EN" "http://www.w3.org/Graphics/SVG/1.1/DTD/svg11.dtd">
<svg version="1.1" id="Layer_1" xmlns="http://www.w3.org/2000/svg" xmlns:xlink="http://www.w3.org/1999/xlink" x="0px" y="0px"
	 width="50px" height="50px" viewBox="0 0 50 50" enable-background="new 0 0 50 50" xml:space="preserve">
<g>
	<g>
		<path fill="#86B297" d="M4.781,28.388c-2.581,2.202-4.22,5.478-4.22,9.137c0,6.632,5.376,12.008,12.009,12.008
			c4.019,0,7.575-1.976,9.754-5.01C13.616,43.396,6.605,36.859,4.781,28.388z"/>
		<path fill="#0A5B93" d="M45.236,28.31c-1.794,8.489-8.791,15.053-17.5,16.206c2.187,2.984,5.712,4.923,9.694,4.923
			c6.631,0,12.008-5.377,12.008-12.009C49.438,33.78,47.808,30.513,45.236,28.31z"/>
		<path fill="#0A5B93" d="M20.738,3.771c-2.143-1.991-5.013-3.209-8.167-3.209c-6.632,0-12.009,5.376-12.009,12.008
			c0,3.514,1.51,6.677,3.918,8.873C5.571,12.646,12.179,5.563,20.738,3.771z"/>
		<path fill="#86B297" d="M37.431,0.468c-3.195,0-6.096,1.25-8.247,3.285c8.57,1.76,15.2,8.823,16.327,17.606
			c2.414-2.196,3.928-5.362,3.928-8.882C49.438,5.844,44.062,0.468,37.431,0.468z"/>
	</g>
	<circle fill="#86B297" cx="25" cy="23.526" r="10.53"/>
</g>
</svg>
