<?xml version="1.0" encoding="utf-8"?>
<!-- Generator: Adobe Illustrator 16.0.0, SVG Export Plug-In . SVG Version: 6.00 Build 0)  -->
<!DOCTYPE svg PUBLIC "-//W3C//DTD SVG 1.1//EN" "http://www.w3.org/Graphics/SVG/1.1/DTD/svg11.dtd">
<svg version="1.1" id="Layer_1" xmlns="http://www.w3.org/2000/svg" xmlns:xlink="http://www.w3.org/1999/xlink" x="0px" y="0px"
	 width="500px" height="500px" viewBox="0 0 500 500" enable-background="new 0 0 500 500" xml:space="preserve">
<path fill="#d9534f" d="M498.073,440.354c0.583-1.324,0.997-2.697,1.339-4.09c0.087-0.371,0.165-0.735,0.233-1.115
	c0.249-1.254,0.409-2.53,0.447-3.818c0.011-0.172,0.041-0.346,0.041-0.52c0.017-1.446-0.117-2.893-0.356-4.329
	c-0.029-0.154-0.007-0.307-0.04-0.459L424.531,19.919c-1.572-8.477-7.473-15.509-15.559-18.517
	c-2.779-1.034-5.679-1.542-8.555-1.542c-5.489,0-10.912,1.838-15.328,5.374L9.066,306.055c-0.825,0.662-1.582,1.384-2.31,2.136
	c-0.229,0.235-0.431,0.481-0.65,0.72c-0.488,0.551-0.958,1.124-1.4,1.718c-0.2,0.269-0.402,0.537-0.584,0.813
	c-0.468,0.689-0.89,1.396-1.284,2.118c-0.095,0.182-0.21,0.355-0.307,0.543c-0.458,0.908-0.862,1.848-1.207,2.81
	c-0.095,0.255-0.163,0.521-0.239,0.771c-0.24,0.728-0.441,1.46-0.613,2.215c-0.068,0.333-0.135,0.673-0.192,1.01
	c-0.134,0.72-0.221,1.452-0.288,2.185c-0.028,0.315-0.068,0.627-0.087,0.941c0,0.131-0.028,0.266-0.028,0.399
	c-0.029,0.91-0.01,1.811,0.066,2.712c0.01,0.076,0.03,0.163,0.03,0.244c0.086,0.966,0.239,1.927,0.44,2.869
	c0.029,0.121,0.029,0.244,0.059,0.365c0.047,0.196,0.125,0.381,0.172,0.573c0.183,0.738,0.402,1.455,0.661,2.169
	c0.105,0.312,0.21,0.63,0.335,0.934c0.335,0.853,0.728,1.693,1.159,2.503c0.057,0.103,0.097,0.209,0.154,0.309
	c0.488,0.885,1.053,1.735,1.656,2.557c0.192,0.267,0.403,0.512,0.604,0.764c0.441,0.564,0.911,1.106,1.409,1.631
	c0.248,0.256,0.489,0.516,0.747,0.766c0.182,0.171,0.335,0.353,0.526,0.526l165.448,150.407c4.55,4.137,10.441,6.378,16.497,6.378
	c1.272,0,2.547-0.092,3.822-0.298l285.788-45.128c0.133-0.021,0.258-0.075,0.391-0.092c1.4-0.25,2.779-0.603,4.12-1.091
	c0.201-0.07,0.402-0.163,0.603-0.244c1.352-0.526,2.671-1.156,3.908-1.916c0.106-0.065,0.19-0.136,0.299-0.201
	c1.227-0.787,2.394-1.678,3.485-2.683c0.07-0.07,0.146-0.119,0.223-0.185c0.689-0.656,1.357-1.356,1.981-2.101
	c0.287-0.347,0.507-0.722,0.765-1.068c0.136-0.174,0.299-0.305,0.424-0.479c0.096-0.146,0.163-0.314,0.259-0.455
	c0.821-1.232,1.57-2.487,2.154-3.817C498.073,440.377,498.073,440.365,498.073,440.354z M325.211,84.548l150.415,345.943
	L24.392,325.207L325.211,84.548z M400.418,24.384l55.37,298.971L347.701,74.771c-0.868-2.011-2.03-3.852-3.359-5.526L400.418,24.384
	z M189.841,475.619L61.657,359.082l349.606,81.577L189.841,475.619z"/>
</svg>
