<?xml version="1.0" encoding="utf-8"?>
<!-- Generator: Adobe Illustrator 18.1.0, SVG Export Plug-In . SVG Version: 6.00 Build 0)  -->
<!DOCTYPE svg PUBLIC "-//W3C//DTD SVG 1.1//EN" "http://www.w3.org/Graphics/SVG/1.1/DTD/svg11.dtd">
<svg version="1.1" id="Layer_1" xmlns="http://www.w3.org/2000/svg" xmlns:xlink="http://www.w3.org/1999/xlink" x="0px" y="0px"
	 viewBox="0 0 1500 800" enable-background="new 0 0 1500 800" xml:space="preserve">
<g>
	<polygon fill="none" stroke="#000000" stroke-width="8" stroke-miterlimit="10" points="453.7,288.1 675.6,663.4 231.7,663.4 	"/>
	<polygon fill="none" stroke="#000000" stroke-width="8" stroke-miterlimit="10" points="342.8,350.9 564.7,726.1 120.8,726.1 	"/>
	<polygon fill="none" stroke="#000000" stroke-width="8" stroke-miterlimit="10" points="342.8,350.9 564.7,726.1 120.8,726.1 	"/>
	<polygon fill="none" stroke="#000000" stroke-width="8" stroke-miterlimit="10" points="232,413.3 454,788.6 10.1,788.6 	"/>
	<polygon fill="none" stroke="#000000" stroke-width="8" stroke-miterlimit="10" points="1267.3,413.3 1489.2,788.6 1045.3,788.6 	
		"/>
	<polygon fill="none" stroke="#000000" stroke-width="8" stroke-miterlimit="10" points="564.8,350.8 786.8,726 342.9,726 	"/>
	<polygon fill="none" stroke="#000000" stroke-width="8" stroke-miterlimit="10" points="931.6,350.8 1153.5,726 709.7,726 	"/>
	<polygon fill="none" stroke="#000000" stroke-width="8" stroke-miterlimit="10" points="1156.5,350.8 1378.4,726 934.5,726 	"/>
	<polygon fill="none" stroke="#000000" stroke-width="8" stroke-miterlimit="10" points="749.8,413.3 971.7,788.6 527.8,788.6 	"/>
	<polygon fill="none" stroke="#000000" stroke-width="8" stroke-miterlimit="10" points="453.6,413.3 675.6,788.6 231.7,788.6 	"/>
	<polygon fill="none" stroke="#000000" stroke-width="8" stroke-miterlimit="10" points="1045.7,413.3 1267.6,788.6 823.7,788.6 	
		"/>
	<polygon fill="none" stroke="#000000" stroke-width="8" stroke-miterlimit="10" points="1045.7,288.4 1267.6,663.6 823.7,663.6 	
		"/>
</g>
</svg>
